# xmcd
#
# Track frame offsets:
#	150
#	8120
#	23887
#	40162
#	61880
#	80559
#	100035
#	116335
#	136831
#	157373
#	183439
#	203292
#	221368
#	247394
#
# Disc length: 3405 seconds
#
# Revision: 1
# Processed by: cddbd v1.5.2PL0 Copyright (c) Steve Scherf et al.
# Submitted via: audiograbber 1.83.01
#
DISCID=b70d4b0e
DTITLE=Salty Dog - Salty Dog
DYEAR=2015
DGENRE=Blues
TTITLE0=Cigar Box Blues
TTITLE1=Comin' Home
TTITLE2=Goin' Down South
TTITLE3=Mojo Boogie
TTITLE4=Rollin' and Tumblin'
TTITLE5=The Sky is Crying
TTITLE6=Rock Me
TTITLE7=My Baby's So Sweet
TTITLE8=Dust My Broom
TTITLE9=Delaware Slide
TTITLE10=Pretty Baby
TTITLE11=Howlin' For My Baby
TTITLE12=Bull Frog Blues
TTITLE13=Cigar Box Blues 2
EXTD=
EXTT0=
EXTT1=
EXTT2=
EXTT3=
EXTT4=
EXTT5=
EXTT6=
EXTT7=
EXTT8=
EXTT9=
EXTT10=
EXTT11=
EXTT12=
EXTT13=
PLAYORDER=
